HIERARCHY
ROOT Hips
{
  OFFSET 51.1203 85.6893 3.95866
  CHANNELS 6 Xposition Yposition Zposition Zrotation Xrotation Yrotation
  JOINT spine
  {
    OFFSET 0 6.3926 0.367606
    CHANNELS 3 Zrotation Xrotation Yrotation
    JOINT spine1
    {
      OFFSET 0 9.17611 0
      CHANNELS 3 Zrotation Xrotation Yrotation
      JOINT spine2
      {
        OFFSET 0 8.79238 0
        CHANNELS 3 Zrotation Xrotation Yrotation
        JOINT Neck
        {
          OFFSET 0 22.5737 1.07624
          CHANNELS 3 Zrotation Xrotation Yrotation
          JOINT Head
          {
            OFFSET 0 6.82011 0
            CHANNELS 3 Zrotation Xrotation Yrotation
            End Site
            {
              OFFSET 0 16.5085 -5.44427
            }
          }
        }
        JOINT RightShoulder
        {
          OFFSET -3.70221 9.49509 -0.515508
          CHANNELS 3 Zrotation Xrotation Yrotation
          JOINT RightArm
          {
            OFFSET 0 12.4537 0
            CHANNELS 3 Zrotation Xrotation Yrotation
            JOINT RightArmRoll
            {
              OFFSET 0 6.28686 0
              CHANNELS 3 Zrotation Xrotation Yrotation
              JOINT RightForeArm
              {
                OFFSET 0 18.3114 0
                CHANNELS 3 Zrotation Xrotation Yrotation
                JOINT RightForeArmRoll
                {
                  OFFSET 0 7.05482 0
                  CHANNELS 3 Zrotation Xrotation Yrotation
                  JOINT RightHand
                  {
                    OFFSET 0 14.1575 0
                    CHANNELS 3 Zrotation Xrotation Yrotation
                    End Site
                    {
                      OFFSET 0 0 0
                    }
                  }
                }
              }
            }
          }
        }
        JOINT LeftShoulder
        {
          OFFSET 3.70221 9.49509 -0.515508
          CHANNELS 3 Zrotation Xrotation Yrotation
          JOINT LeftArm
          {
            OFFSET 0 12.4537 0
            CHANNELS 3 Zrotation Xrotation Yrotation
            JOINT LeftArmRoll
            {
              OFFSET 0 6.28686 0
              CHANNELS 3 Zrotation Xrotation Yrotation
              JOINT LeftForeArm
              {
                OFFSET 0 18.3114 0
                CHANNELS 3 Zrotation Xrotation Yrotation
                JOINT LeftForeArmRoll
                {
                  OFFSET 0 7.05483 0
                  CHANNELS 3 Zrotation Xrotation Yrotation
                  JOINT LeftHand
                  {
                    OFFSET 0 14.1575 0
                    CHANNELS 3 Zrotation Xrotation Yrotation
                    End Site
                    {
                      OFFSET 0 0 0
                    }
                  }
                }
              }
            }
          }
        }
      }
    }
  }
  JOINT RightUpLeg
  {
    OFFSET -5.66615 -1.03903 -0.87161
    CHANNELS 3 Zrotation Xrotation Yrotation
    JOINT RightUpLegRoll
    {
      OFFSET 0 16.6005 0
      CHANNELS 3 Zrotation Xrotation Yrotation
      JOINT RightLeg
      {
        OFFSET 0 -20.5572 0
        CHANNELS 3 Zrotation Xrotation Yrotation
        JOINT RightLegRoll
        {
          OFFSET 0 20.6244 0
          CHANNELS 3 Zrotation Xrotation Yrotation
          JOINT RightFoot
          {
            OFFSET 0 17.1664 0
            CHANNELS 3 Zrotation Xrotation Yrotation
            JOINT RightToeBase
            {
              OFFSET 0 14.3502 0
              CHANNELS 3 Zrotation Xrotation Yrotation
              End Site
              {
                OFFSET 0.00608252 6.94971 -0.80106
              }
            }
          }
        }
      }
    }
  }
  JOINT LeftUpLeg
  {
    OFFSET 5.66615 -1.03903 -0.87161
    CHANNELS 3 Zrotation Xrotation Yrotation
    JOINT LeftUpLegRoll
    {
      OFFSET 0 16.6006 0
      CHANNELS 3 Zrotation Xrotation Yrotation
      JOINT LeftLeg
      {
        OFFSET 0 20.5571 0
        CHANNELS 3 Zrotation Xrotation Yrotation
        JOINT LeftLegRoll
        {
          OFFSET 0 20.8151 0
          CHANNELS 3 Zrotation Xrotation Yrotation
          JOINT LeftFoot
          {
            OFFSET 0 16.9757 0
            CHANNELS 3 Zrotation Xrotation Yrotation
            JOINT LeftToeBase
            {
              OFFSET 0 14.3502 0
              CHANNELS 3 Zrotation Xrotation Yrotation
              End Site
              {
                OFFSET -0.0272592 6.94971 -0.801061
              }
            }
          }
        }
      }
    }
  }
}
MOTION
Frames: 5
Frame Time: 0.00208333
50.9063 85.5499 3.92472 0.407786 -1.12668 -0.152823 -0.196533 -1.57257 -0.220441 -0.398699 0.86916 -0.414593 -0.393966 2.5142 -0.40807 -6.32742 12.0449 1.58008 4.07783 13.628 -0.535251 19.0522 -17.3771 -15.6424 63.9979 40.0468 69.3615 8.4657e-007 1.40079e-009 -2.835e-006 -10.9038 48.1958 8.36233 5.39556e-006 -1.6589e-006 -3.00134 8.02892 -4.95147 0.697709 -16.3939 -20.6857 20.7104 -63.1419 38.9467 -57.3536 -9.91838e-007 -8.58886e-007 3.39469e-006 18.8457 34.3852 -9.89679 -3.43884e-006 3.95533e-007 3.00811 -8.02898 -4.95146 -0.697689 173.717 -0.0424046 1.69285 180 7.01548e-015 178.927 176.793 5.87393 179.76 -2.45697e-006 1.23139e-006 0.0386786 -18.1383 67.9533 19.493 8.13693 25.2391 -3.48875 -175.6 -0.0173389 1.09193 4.54188e-006 -4.6773e-006 -1.06666 -0.976927 -5.95752 0.447882 -3.03726e-006 -2.56543e-006 -0.0188385 18.1239 68.2986 -19.785 -8.13654 25.2334 3.4868 
50.91 85.549 3.91577 0.40888 -1.12417 -0.151424 -0.19624 -1.57226 -0.220478 -0.398494 0.869683 -0.414474 -0.393765 2.51472 -0.407969 -6.32644 12.0496 1.58425 4.07172 13.607 -0.530086 19.1372 -17.3717 -15.6212 64.1292 39.9652 69.1267 8.4657e-007 1.40082e-009 -2.835e-006 -10.9698 47.7332 8.29457 5.39556e-006 -1.6589e-006 -3.00134 8.02892 -4.95147 0.697709 -16.4538 -20.6886 20.699 -63.2429 38.8771 -57.042 -9.91838e-007 -8.58886e-007 3.39469e-006 18.7329 33.8259 -9.66023 -3.43884e-006 3.95533e-007 3.00811 -8.02898 -4.95146 -0.697689 173.715 -0.0396587 1.69423 180 7.01548e-015 178.927 176.791 5.87371 179.76 -2.45697e-006 1.23139e-006 0.0386345 -18.1371 67.9527 19.4925 8.13693 25.2391 -3.48875 -175.607 -0.0134338 1.10763 4.54188e-006 -4.6773e-006 -1.06659 -0.959758 -5.95822 0.449383 -3.03726e-006 -2.56543e-006 -0.0186708 18.1144 68.2996 -19.7843 -8.13654 25.2334 3.4868 
50.9058 85.5505 3.92018 0.409756 -1.12183 -0.149945 -0.195911 -1.57191 -0.220539 -0.398231 0.870228 -0.414412 -0.393504 2.51527 -0.407925 -6.32498 12.0549 1.58839 4.06502 13.5855 -0.524784 19.2234 -17.3655 -15.5989 64.2609 39.8823 68.8908 8.4657e-007 1.40081e-009 -2.835e-006 -11.0338 47.2716 8.22567 5.39556e-006 -1.6589e-006 -3.00134 8.02892 -4.95147 0.697709 -16.5144 -20.6912 20.6871 -63.3446 38.8071 -56.7284 -9.91838e-007 -8.58886e-007 3.39469e-006 18.6185 33.269 -9.42574 -3.43884e-006 3.95533e-007 3.0081 -8.02898 -4.95146 -0.697689 173.714 -0.0362483 1.69548 180 7.01548e-015 178.927 176.79 5.87522 179.761 -2.45697e-006 1.23139e-006 0.0385903 -18.1359 67.953 19.4927 8.13693 25.2391 -3.48875 -175.615 -0.008633 1.12277 4.54188e-006 -4.6773e-006 -1.0665 -0.942989 -5.96171 0.450905 -3.03726e-006 -2.56543e-006 -0.0185921 18.1058 68.3022 -19.7849 -8.13654 25.2334 3.4868 
50.9057 85.5489 3.91181 0.410451 -1.11973 -0.148386 -0.195562 -1.57152 -0.220615 -0.397938 0.870839 -0.41439 -0.393213 2.51588 -0.407922 -6.32302 12.0606 1.59245 4.05779 13.5636 -0.519396 19.3108 -17.3589 -15.5758 64.3932 39.7987 68.6544 8.4657e-007 1.40084e-009 -2.835e-006 -11.0958 46.8116 8.15596 5.39556e-006 -1.6589e-006 -3.00133 8.02892 -4.95147 0.697709 -16.5756 -20.6934 20.6744 -63.4475 38.7362 -56.4127 -9.91838e-007 -8.58886e-007 3.39469e-006 18.5023 32.7148 -9.19369 -3.43884e-006 3.95533e-007 3.0081 -8.02898 -4.95146 -0.697689 173.712 -0.0323354 1.69666 180 7.01548e-015 178.927 176.788 5.87831 179.762 -2.45697e-006 1.23139e-006 0.038546 -18.1347 67.9541 19.4935 8.13693 25.2391 -3.48875 -175.621 -0.00321791 1.13703 4.54188e-006 -4.6773e-006 -1.06639 -0.927028 -5.96756 0.452406 -3.03726e-006 -2.56543e-006 -0.0185915 18.0982 68.3061 -19.7866 -8.13654 25.2334 3.4868 
50.8992 85.5536 3.91596 0.411002 -1.11798 -0.146751 -0.195211 -1.57105 -0.220693 -0.397643 0.871562 -0.414392 -0.39292 2.5166 -0.407942 -6.32057 12.0667 1.59638 4.05008 13.5414 -0.513969 19.3993 -17.3521 -15.5523 64.5262 39.715 68.4183 8.4657e-007 1.40085e-009 -2.835e-006 -11.1559 46.3534 8.0857 5.39556e-006 -1.6589e-006 -3.00133 8.02892 -4.95147 0.697709 -16.6374 -20.6952 20.6611 -63.552 38.6643 -56.095 -9.91838e-007 -8.58886e-007 3.39469e-006 18.3847 32.1639 -8.96441 -3.43884e-006 3.95533e-007 3.0081 -8.02898 -4.95146 -0.697689 173.711 -0.0280819 1.69782 180 7.01548e-015 178.927 176.787 5.8829 179.763 -2.45697e-006 1.23139e-006 0.0385015 -18.1337 67.9559 19.495 8.13693 25.2391 -3.48875 -175.627 0.00253001 1.15014 4.54188e-006 -4.6773e-006 -1.06627 -0.912282 -5.97536 0.453845 -3.03726e-006 -2.56543e-006 -0.0186578 18.0916 68.3112 -19.7892 -8.13654 25.2334 3.4868 
